<svg xmlns="http://www.w3.org/2000/svg" viewBox="0 0 279 63">
    <defs>
        <style>.cls-1{fill:#fff;}</style>
    </defs>
    <g id="Layer_2">
        <g id="Layer_1-2">
            <path class="cls-1" d="M269,8a2,2,0,0,1,2,2V53a2,2,0,0,1-2,2H10a2,2,0,0,1-2-2V10a2,2,0,0,1,2-2H269m0-8H10A10,10,0,0,0,0,10V53A10,10,0,0,0,10,63H269a10,10,0,0,0,10-10V10A10,10,0,0,0,269,0Z"/>
            <path class="cls-1"
                  d="M24.27,46.42a13.92,13.92,0,0,1-5.45-6,19.87,19.87,0,0,1-1.9-8.91,19.87,19.87,0,0,1,1.9-8.91,14,14,0,0,1,5.45-6,16,16,0,0,1,8.35-2.12A16,16,0,0,1,41,16.64a14.06,14.06,0,0,1,5.46,6,20,20,0,0,1,1.9,8.91,20,20,0,0,1-1.9,8.91,14,14,0,0,1-5.46,6,16,16,0,0,1-8.35,2.12A16,16,0,0,1,24.27,46.42Zm13.44-5a8.35,8.35,0,0,0,3.1-3.9,15.75,15.75,0,0,0,1-6c0-3.48-.78-6.2-2.34-8.18a8.42,8.42,0,0,0-6.89-3,8.77,8.77,0,0,0-5.08,1.32,8.37,8.37,0,0,0-3.11,3.9,15.76,15.76,0,0,0-1,6c0,3.48.78,6.2,2.34,8.18a8.4,8.4,0,0,0,6.88,3A8.73,8.73,0,0,0,37.71,41.41Z"/>
            <path class="cls-1" d="M52.83,15.2h5.49L69,36.88,79.74,15.2h5.49V47.86H79.51V28.36l-9.4,19.5H68l-9.41-19.5v19.5H52.83Z"/>
            <path class="cls-1" d="M91.53,15.2h6.21L111.82,37V15.2H118V47.86h-6.21L97.74,26.09V47.86H91.53Z"/>
            <path class="cls-1" d="M124.78,15.2h6.12V47.86h-6.12Z"/>
            <path class="cls-1"
                  d="M143.21,46.42a14,14,0,0,1-5.46-6,19.87,19.87,0,0,1-1.9-8.91,19.87,19.87,0,0,1,1.9-8.91,14.06,14.06,0,0,1,5.46-6,16,16,0,0,1,8.34-2.12,16.87,16.87,0,0,1,6.62,1.25,13.84,13.84,0,0,1,5,3.57,15.37,15.37,0,0,1,3.09,5.52l-6.17,1.73A8.79,8.79,0,0,0,157,22a8.86,8.86,0,0,0-5.47-1.62,9,9,0,0,0-5.1,1.37,8.4,8.4,0,0,0-3.12,3.88,15.33,15.33,0,0,0-1.05,6,15.33,15.33,0,0,0,1.05,5.95,8.35,8.35,0,0,0,3.12,3.88,9,9,0,0,0,5.1,1.37A8.86,8.86,0,0,0,157,41.11a8.76,8.76,0,0,0,3.08-4.63l6.17,1.72a15.37,15.37,0,0,1-3.09,5.52,13.84,13.84,0,0,1-5,3.57,16.87,16.87,0,0,1-6.62,1.25A16,16,0,0,1,143.21,46.42Z"/>
            <path class="cls-1" d="M190.7,47.86l-2.09-6.8H176.42l-2,6.8h-6.3L178,15.2h9.13L197,47.86ZM178.15,35.3h8.71L182.47,21Z"/>
            <path class="cls-1" d="M201.05,15.2h6.21L221.35,37V15.2h6.21V47.86h-6.21L207.26,26.09V47.86h-6.21Z"/>
            <path class="cls-1" d="M233.86,15.2h6.21L254.15,37V15.2h6.21V47.86h-6.21L240.07,26.09V47.86h-6.21Z"/>
        </g>
    </g>
</svg>
